<svg xmlns="http://www.w3.org/2000/svg" width="42" height="62.113" viewBox="0 0 42 62.113">
  <defs>
    <style>
      .cls-1 {
        fill: none;
        stroke-linecap: round;
        stroke-linejoin: round;
      }

      .cls-2, .cls-3 {
        stroke: none;
      }

      .cls-3 {
        fill: #fff;
      }
    </style>
  </defs>
  <g id="rgba_228_228_228_0.76_" data-name="rgba(228,228,228,0.76)" class="cls-1" transform="translate(-653 -165)">
    <path class="cls-2" d="M678.5,167h3l11.5,9.5-1.5,2.5L681,186.5l12,8.5v11.5l-1.5.5-19,16q-1.4,2.6-6,2L655,215.5l11-10-11-9v-10l3.5-3.5ZM670,179l-1,8,5,3,4-3Zm4,23-4,5,9,6v-6Z"/>
    <path class="cls-3" d="M 678.5 167 L 658.5 183 L 655 186.5 L 655 196.5 L 666 205.5 L 655 215.5 L 666.5 225 C 667.0751953125 225.0750274658203 667.6123657226563 225.1125030517578 668.1124877929688 225.1125030517578 C 670.2788696289063 225.1125030517578 671.74169921875 224.4082336425781 672.5 223 L 691.5 207 L 693 206.5 L 693 195 L 681 186.5 L 691.5 179 L 693 176.5 L 681.5 167 L 678.5 167 M 674 190 L 669 187 L 670 179 L 678 187 L 674 190 M 679 213 L 670 207 L 674 202 L 679 207 L 679 213 M 678.5 165 L 681.5 165 C 681.9649047851563 165 682.4153442382813 165.1619720458984 682.7737426757813 165.4580841064453 L 694.2737426757813 174.9580841064453 C 695.0363159179688 175.5880432128906 695.223876953125 176.6808166503906 694.7149658203125 177.5289916992188 L 693.2149658203125 180.0289916992188 C 693.0737915039063 180.2642669677734 692.8857421875 180.4679870605469 692.6624755859375 180.6274719238281 L 684.4505004882813 186.4931945800781 L 694.156005859375 193.3679504394531 C 694.6853637695313 193.7429046630859 695 194.351318359375 695 195 L 695 206.5 C 695 207.3608551025391 694.4491577148438 208.1251373291016 693.6324462890625 208.3973693847656 L 692.4954833984375 208.7763519287109 L 674.0490112304688 224.3102264404297 C 673.18994140625 225.6641235351563 671.4828491210938 227.1125030517578 668.1124877929688 227.1125030517578 C 667.528564453125 227.1125030517578 666.8990478515625 227.0690002441406 666.2412719726563 226.9832000732422 C 665.8681640625 226.9345245361328 665.516357421875 226.7815856933594 665.2262573242188 226.5419158935547 L 653.7262573242188 217.0419158935547 C 653.279052734375 216.6725311279297 653.0142822265625 216.1272125244141 653.0005493164063 215.54736328125 C 652.98681640625 214.967529296875 653.2254638671875 214.4102783203125 653.6546630859375 214.0201263427734 L 662.9390869140625 205.5797271728516 L 653.7335205078125 198.0479125976563 C 653.2692260742188 197.6680603027344 653 197.0998687744141 653 196.5 L 653 186.5 C 653 185.9695739746094 653.210693359375 185.4608612060547 653.5858154296875 185.0857849121094 L 657.0858154296875 181.5857849121094 C 657.137939453125 181.5336151123047 657.1929931640625 181.4843597412109 657.2506103515625 181.4382629394531 L 677.2506103515625 165.4382629394531 C 677.605224609375 165.1545562744141 678.0458374023438 165 678.5 165 Z M 674.9552001953125 186.7836151123047 L 671.4773559570313 183.3057708740234 L 671.1461791992188 185.9553070068359 L 673.8758544921875 187.5931243896484 L 674.9552001953125 186.7836151123047 Z M 677 207.8284149169922 L 674.1658325195313 204.9942626953125 L 672.9244995117188 206.5459594726563 L 677 209.2629699707031 L 677 207.8284149169922 Z"/>
  </g>
</svg>
