<svg xmlns="http://www.w3.org/2000/svg" width="18" height="81" viewBox="0 0 18 81">
  <defs>
    <style>
      .cls-1 {
        fill: none;
        stroke-linecap: round;
        stroke-linejoin: round;
      }

      .cls-2, .cls-3 {
        stroke: none;
      }

      .cls-3 {
        fill: #fff;
      }
    </style>
  </defs>
  <g id="rgba_228_228_228_0.76_" data-name="rgba(228,228,228,0.76)" class="cls-1" transform="translate(-364 -146)">
    <path class="cls-2" d="M377.5,148l2.5.5v67l-9.5,8.5-4.5,1V157.5l1.5-1.5Z"/>
    <path class="cls-3" d="M 377.5 148 L 367.5 156 L 366 157.5 L 366 225 L 370.5 224 L 380 215.5 L 380 148.5 L 377.5 148 M 377.5000305175781 145.9999847412109 C 377.6306457519531 145.9999847412109 377.761962890625 146.0127868652344 377.8922424316406 146.0388336181641 L 380.3922424316406 146.5388336181641 C 381.3270874023438 146.7258148193359 382 147.546630859375 382 148.5 L 382 215.5 C 382 216.0690002441406 381.7576293945313 216.6110687255859 381.3335876464844 216.990478515625 L 371.8335876464844 225.490478515625 C 371.5781860351563 225.718994140625 371.2684020996094 225.8780364990234 370.9338684082031 225.9523773193359 L 366.4338684082031 226.9523773193359 C 366.2900695800781 226.9843292236328 366.1445922851563 227.0000152587891 366.0000610351563 227.0000152587891 C 365.5492248535156 227.0000152587891 365.1068725585938 226.8475036621094 364.74853515625 226.5600891113281 C 364.2753295898438 226.1804962158203 364 225.6066284179688 364 225 L 364 157.5 C 364 156.9695587158203 364.2107238769531 156.4608612060547 364.5857849121094 156.0857849121094 L 366.0857849121094 154.5857849121094 C 366.1379699707031 154.5336151123047 366.1929931640625 154.4843597412109 366.2506103515625 154.4382629394531 L 376.2506103515625 146.4382629394531 C 376.6082153320313 146.1521606445313 377.0497436523438 145.9999847412109 377.5000305175781 145.9999847412109 Z"/>
  </g>
</svg>
