<svg xmlns="http://www.w3.org/2000/svg" width="43.326" height="62" viewBox="0 0 43.326 62">
  <defs>
    <style>
      .cls-1 {
        fill: none;
        stroke-linecap: round;
        stroke-linejoin: round;
      }

      .cls-2, .cls-3 {
        stroke: none;
      }

      .cls-3 {
        fill: #fff;
      }
    </style>
  </defs>
  <g id="rgba_228_228_228_0.76_" data-name="rgba(228,228,228,0.76)" class="cls-1" transform="translate(-159 -165)">
    <path class="cls-2" d="M185.5,167l4,1,10.5,8q1.1,2.7-1.5,2l-18,14-1.5-1.5v-9l-2.5-2.5-1.5.5V206l5.5,4,11-9h3l5.5,4.5L176.5,225h-3L161,215.5v-29l1.5-1.5Z"/>
    <path class="cls-3" d="M 185.5 167 L 162.5 185 L 161 186.5 L 161 215.5 L 173.5 225 L 176.5 225 L 200 205.5 L 194.5 201 L 191.5 201 L 180.5 210 L 175 206 L 175 179.5 L 176.5 179 L 179 181.5 L 179 190.5 L 180.5 192 L 198.5 178 C 198.8569488525391 178.0960998535156 199.1614074707031 178.1441192626953 199.4137573242188 178.1441192626953 C 200.3867797851563 178.1441192626953 200.5823211669922 177.4293212890625 200 176 L 189.5 168 L 185.5 167 M 185.5000762939453 164.9999847412109 C 185.6619567871094 164.9999847412109 185.8247680664063 165.0196380615234 185.9850616455078 165.0597076416016 L 189.9850616455078 166.0597076416016 C 190.2486267089844 166.1255950927734 190.4959869384766 166.2445068359375 190.7120819091797 166.4091339111328 L 201.2120819091797 174.4091339111328 C 201.4963226318359 174.6257019042969 201.7173614501953 174.9144744873047 201.8521728515625 175.2454071044922 C 202.0840911865234 175.8146362304688 202.7898254394531 177.5468597412109 201.8534393310547 178.939453125 C 201.5509185791016 179.3893585205078 200.8317108154297 180.1441192626953 199.4137420654297 180.1441192626953 C 199.2871856689453 180.1441192626953 199.1574859619141 180.1381530761719 199.0240325927734 180.1261444091797 L 181.7278747558594 193.5787048339844 C 181.3648681640625 193.8610382080078 180.9317932128906 194.0000152587891 180.5005340576172 194.0000152587891 C 179.9859161376953 194.0000152587891 179.4738311767578 193.80224609375 179.0857849121094 193.4142150878906 L 177.5857849121094 191.9142150878906 C 177.2107086181641 191.5391387939453 177 191.0304260253906 177 190.5 L 177 182.3284149169922 L 177 204.9815521240234 L 180.4280853271484 207.4747161865234 L 190.2335205078125 199.4520874023438 C 190.5908508300781 199.1597290039063 191.0383148193359 199 191.5 199 L 194.5 199 C 194.9616851806641 199 195.4091491699219 199.1597290039063 195.7664794921875 199.4520874023438 L 201.2664794921875 203.9520874023438 C 201.7288665771484 204.3304138183594 201.9979248046875 204.8956451416016 201.9999847412109 205.4930877685547 C 202.0020446777344 206.0905303955078 201.7369232177734 206.6576080322266 201.2771453857422 207.0391235351563 L 177.7771453857422 226.5391235351563 C 177.4181976318359 226.8369750976563 176.9664306640625 227 176.5 227 L 173.5 227 C 173.0628967285156 227 172.6378326416016 226.8568115234375 172.2898254394531 226.5923156738281 L 159.7898254394531 217.0923156738281 C 159.2922058105469 216.7141265869141 159 216.1250305175781 159 215.5 L 159 186.5 C 159 185.9695739746094 159.2107086181641 185.4608612060547 159.5857849121094 185.0857849121094 L 161.0857849121094 183.5857849121094 C 161.1430053710938 183.528564453125 161.2036437988281 183.4748687744141 161.2673797607422 183.4249877929688 L 184.2673797607422 165.4249877929688 C 184.6228942871094 165.1467590332031 185.0578308105469 164.9999847412109 185.5000762939453 164.9999847412109 Z"/>
  </g>
</svg>
