<svg xmlns="http://www.w3.org/2000/svg" width="42" height="82" viewBox="0 0 42 82">
  <defs>
    <style>
      .cls-1 {
        fill: none;
        stroke-linecap: round;
        stroke-linejoin: round;
      }

      .cls-2, .cls-3 {
        stroke: none;
      }

      .cls-3 {
        fill: #fff;
      }
    </style>
  </defs>
  <g id="rgba_228_228_228_0.76_" data-name="rgba(228,228,228,0.76)" class="cls-1" transform="translate(-383 -146)">
    <path class="cls-2" d="M396.5,148l2.5.5v25l1.5.5,8-7h2l12.5,9.5-1.5,2.5L411,186.5l12,8.5v20.5l-4.5,4.5-8,6-1.5-1.5v-18l-2.5-2.5-7.5-5v16.5l-2.5,2.5-9,7H385V157.5l4.5-4.5Zm3.5,31v15l7-6q2,1,1-1Z"/>
    <path class="cls-3" d="M 396.5 148 L 389.5 153 L 385 157.5 L 385 225 L 387.5 225 L 396.5 218 L 399 215.5 L 399 199 L 406.5 204 L 409 206.5 L 409 224.5 L 410.5 226 L 418.5 220 L 423 215.5 L 423 195 L 411 186.5 L 421.5 179 L 423 176.5 L 410.5 167 L 408.5 167 L 400.5 174 L 399 173.5 L 399 148.5 L 396.5 148 M 408 188.3333282470703 C 407.7777709960938 188.3333282470703 407.4444274902344 188.2222137451172 407 188 L 400 194 L 400 179 L 408 187 C 408.4444580078125 187.888916015625 408.4444885253906 188.3333282470703 408 188.3333282470703 M 396.5000305175781 145.9999847412109 C 396.6307373046875 145.9999847412109 396.7620849609375 146.0128021240234 396.8922424316406 146.0388336181641 L 399.3922424316406 146.5388336181641 C 400.3270874023438 146.7258148193359 401 147.546630859375 401 148.5 L 401 170.9049682617188 L 407.1829833984375 165.4948425292969 C 407.5475769042969 165.1758422851563 408.0155639648438 165 408.5 165 L 410.5 165 C 410.9371032714844 165 411.3621520996094 165.1431884765625 411.7101745605469 165.4076690673828 L 424.2101745605469 174.9076690673828 C 425.0222778320313 175.5248718261719 425.2397766113281 176.6543273925781 424.7149963378906 177.5289916992188 L 423.2149963378906 180.0289916992188 C 423.0738220214844 180.2642669677734 422.8857421875 180.4679870605469 422.6624755859375 180.6274719238281 L 414.4504699707031 186.4931793212891 L 424.1560363769531 193.3679504394531 C 424.6853942871094 193.7429046630859 425 194.3513031005859 425 195 L 425 215.5 C 425 216.0304412841797 424.7892761230469 216.5391387939453 424.4142150878906 216.9142150878906 L 419.9142150878906 221.4142150878906 C 419.8472900390625 221.4811248779297 419.7756958007813 221.543212890625 419.7000122070313 221.6000061035156 L 411.7000122070313 227.6000061035156 C 411.3423767089844 227.8682250976563 410.9205017089844 228.0000152587891 410.5005798339844 228.0000152587891 C 409.985595703125 228.0000152587891 409.4734497070313 227.8018951416016 409.0857849121094 227.4142150878906 L 407.5857849121094 225.9142150878906 C 407.2107238769531 225.5391387939453 407 225.0304412841797 407 224.5 L 407 207.3284301757813 L 405.2258605957031 205.5542755126953 L 401 202.7370452880859 L 401 215.5 C 401 216.0304412841797 400.7892761230469 216.5391387939453 400.4142150878906 216.9142150878906 L 397.9142150878906 219.4142150878906 C 397.8555908203125 219.4728546142578 397.7933349609375 219.5277862548828 397.7278747558594 219.5787048339844 L 388.7278747558594 226.5787048339844 C 388.3768005371094 226.8517456054688 387.9447631835938 227 387.5 227 L 385 227 C 383.8954467773438 227 383 226.1045684814453 383 225 L 383 157.5 C 383 156.9695587158203 383.2107238769531 156.4608612060547 383.5857849121094 156.0857849121094 L 388.0857849121094 151.5857849121094 C 388.1636962890625 151.5078887939453 388.2478942871094 151.4365692138672 388.3375244140625 151.3725280761719 L 395.3375244140625 146.3725280761719 C 395.6793518066406 146.1283569335938 396.0863952636719 145.9999847412109 396.5000305175781 145.9999847412109 Z M 405.1355285644531 186.9639587402344 L 402 183.8284301757813 L 402 189.6515502929688 L 405.1355285644531 186.9639587402344 Z"/>
  </g>
</svg>
