<svg xmlns="http://www.w3.org/2000/svg" width="42" height="62" viewBox="0 0 42 62">
  <defs>
    <style>
      .cls-1 {
        fill: none;
        stroke-linecap: round;
        stroke-linejoin: round;
      }

      .cls-2, .cls-3 {
        stroke: none;
      }

      .cls-3 {
        fill: #fff;
      }
    </style>
  </defs>
  <g id="rgba_228_228_228_0.76_" data-name="rgba(228,228,228,0.76)" class="cls-1" transform="translate(-696 -165)">
    <path class="cls-2" d="M721.5,167h3l11.5,9.5-1.5,2.5L716,192v-9.5l-3.5-3.5-.5,26.5q.5,4,5.5,3.5l12-9,6.5,5.5L712.5,225h-3L698,215.5v-29l4.5-4.5Z"/>
    <path class="cls-3" d="M 721.5 167 L 702.5 182 L 698 186.5 L 698 215.5 L 709.5 225 L 712.5 225 L 736 205.5 L 729.5 200 L 717.5 209 C 717.1295166015625 209.0370483398438 716.7778930664063 209.0555572509766 716.4444580078125 209.0555572509766 C 713.7780151367188 209.0555572509766 712.2962646484375 207.8702850341797 712 205.5 L 712.5 179 L 716 182.5 L 716 192 L 734.5 179 L 736 176.5 L 724.5 167 L 721.5 167 M 721.5 165 L 724.5 165 C 724.9649047851563 165 725.4153442382813 165.1619720458984 725.7737426757813 165.4580841064453 L 737.2737426757813 174.9580841064453 C 738.0363159179688 175.5880432128906 738.223876953125 176.6808166503906 737.7149658203125 177.5289916992188 L 736.2149658203125 180.0289916992188 C 736.0711669921875 180.2687225341797 735.878662109375 180.4756469726563 735.64990234375 180.6363830566406 L 717.14990234375 193.6363830566406 C 716.8067626953125 193.8775024414063 716.4041748046875 194 715.9998168945313 194 C 715.6845092773438 194 715.3681640625 193.925537109375 715.0780029296875 193.7747955322266 C 714.7138061523438 193.5855865478516 714.4241943359375 193.2935180664063 714.2372436523438 192.94482421875 L 714.0025024414063 205.3858184814453 C 714.1362915039063 206.3115386962891 714.4723510742188 207.0555572509766 716.4444580078125 207.0555572509766 C 716.5491943359375 207.0555572509766 716.657470703125 207.0531616210938 716.768798828125 207.0484161376953 L 728.2999877929688 198.3999938964844 C 728.6563720703125 198.1327056884766 729.0785522460938 198.0000305175781 729.4998168945313 198 C 729.96044921875 197.9999542236328 730.4199829101563 198.1585540771484 730.7918701171875 198.4732360839844 L 737.2918701171875 203.9732360839844 C 737.7435302734375 204.3554077148438 738.0028076171875 204.9179534912109 738 205.5096130371094 C 737.9971313476563 206.1012725830078 737.7324829101563 206.6613006591797 737.2771606445313 207.0391235351563 L 713.7771606445313 226.5391235351563 C 713.418212890625 226.8369750976563 712.9664306640625 227 712.5 227 L 709.5 227 C 709.0350952148438 227 708.5846557617188 226.8380279541016 708.2262573242188 226.5419158935547 L 696.7262573242188 217.0419158935547 C 696.2662963867188 216.6619873046875 696 216.0965576171875 696 215.5 L 696 186.5 C 696 185.9695739746094 696.210693359375 185.4608612060547 696.5858154296875 185.0857849121094 L 701.0858154296875 180.5857849121094 C 701.1409912109375 180.5305633544922 701.1994018554688 180.4786224365234 701.2606811523438 180.4302368164063 L 720.2606811523438 165.4302368164063 C 720.6137084960938 165.1515655517578 721.05029296875 165 721.5 165 Z"/>
  </g>
</svg>
