<svg xmlns="http://www.w3.org/2000/svg" width="19" height="81" viewBox="0 0 19 81">
  <defs>
    <style>
      .cls-1 {
        fill: none;
        stroke-linecap: round;
        stroke-linejoin: round;
      }

      .cls-2, .cls-3 {
        stroke: none;
      }

      .cls-3 {
        fill: #fff;
      }
    </style>
  </defs>
  <g id="rgba_228_228_228_0.76_" data-name="rgba(228,228,228,0.76)" class="cls-1" transform="translate(-591 -146)">
    <path class="cls-2" d="M605.5,148l2.5.5v67L596.5,225H593l1-3.5v-64l5.5-5.5Z"/>
    <path class="cls-3" d="M 605.5 148 L 599.5 152 L 594 157.5 L 594 221.5 L 593 225 L 596.5 225 L 608 215.5 L 608 148.5 L 605.5 148 M 605.5000610351563 145.9999847412109 C 605.6307983398438 145.9999847412109 605.7620849609375 146.0128173828125 605.8922119140625 146.0388336181641 L 608.3922119140625 146.5388336181641 C 609.3270874023438 146.7258148193359 610 147.546630859375 610 148.5 L 610 215.5 C 610 216.0965576171875 609.7337036132813 216.6619873046875 609.2737426757813 217.0419158935547 L 597.7737426757813 226.5419158935547 C 597.4153442382813 226.8380279541016 596.9649047851563 227 596.5 227 L 593 227 C 592.3724365234375 227 591.78125 226.7054290771484 591.4033203125 226.2043914794922 C 591.025390625 225.703369140625 590.904541015625 225.0539855957031 591.0769653320313 224.4505462646484 L 592 221.2198944091797 L 592 157.5 C 592 156.9695587158203 592.210693359375 156.4608612060547 592.5858154296875 156.0857849121094 L 598.0858154296875 150.5857849121094 C 598.1788940429688 150.4926605224609 598.281005859375 150.4089508056641 598.390625 150.3358917236328 L 604.390625 146.3358917236328 C 604.7214965820313 146.1152801513672 605.1080932617188 145.9999847412109 605.5000610351563 145.9999847412109 Z"/>
  </g>
</svg>
