<svg xmlns="http://www.w3.org/2000/svg" width="48" height="91" viewBox="0 0 48 91">
  <defs>
    <style>
      .cls-1 {
        fill: none;
        stroke-linecap: round;
        stroke-linejoin: round;
      }

      .cls-2, .cls-3 {
        stroke: none;
      }

      .cls-3 {
        fill: #fff;
      }
    </style>
  </defs>
  <g id="rgba_228_228_228_0.76_" data-name="rgba(228,228,228,0.76)" class="cls-1" transform="translate(-68 -136)">
    <path class="cls-2" d="M93.5,138l2.5.5v16l1.5-.5,10-7,6.5,5.5-18,15v48L93.5,218l-9,7H82l-.5-46-6,3L70,176.5l3.5-3.5,8.5-6.5q1.5-7-1.5-6.5l-3,3-1-1L70,157.5Z"/>
    <path class="cls-3" d="M 93.5 138 L 70 157.5 L 76.5 162 L 77.5 163 L 80.5 160 C 80.6334228515625 159.9777679443359 80.75992584228516 159.9666748046875 80.87999725341797 159.9666748046875 C 82.55979156494141 159.9666748046875 82.93328857421875 162.1446380615234 82 166.5 L 73.5 173 L 70 176.5 L 75.5 182 L 81.5 179 L 82 225 L 84.5 225 L 93.5 218 L 96 215.5 L 96 167.5 L 114 152.5 L 107.5 147 L 97.5 154 L 96 154.5 L 96 138.5 L 93.5 138 M 93.50002288818359 135.9999847412109 C 93.63063812255859 135.9999847412109 93.76191711425781 136.0127716064453 93.89223480224609 136.0388336181641 L 96.39223480224609 136.5388336181641 C 97.32707214355469 136.7258148193359 98 137.546630859375 98 138.5 L 98 151.2086944580078 L 106.3530731201172 145.3615417480469 C 106.6986083984375 145.1196746826172 107.0997924804688 145.0000152587891 107.4997406005859 145 C 107.9609680175781 144.9999694824219 108.4205703735352 145.1590423583984 108.7918853759766 145.4732208251953 L 115.2918853759766 150.9732208251953 C 115.7429885864258 151.3549346923828 116.0022125244141 151.9165802001953 115.9999847412109 152.5075073242188 C 115.9977645874023 153.0984497070313 115.7343368530273 153.6581420898438 115.2803726196289 154.0364379882813 L 98 168.4367523193359 L 98 215.5 C 98 216.0304412841797 97.78928375244141 216.5391387939453 97.41421508789063 216.9142150878906 L 94.91421508789063 219.4142150878906 C 94.85557556152344 219.4728546142578 94.7933349609375 219.5277862548828 94.72787475585938 219.5787048339844 L 85.72787475585938 226.5787048339844 C 85.37681579589844 226.8517456054688 84.94474792480469 227 84.5 227 L 82 227 C 80.90391540527344 227 80.01203918457031 226.1177673339844 80.00011444091797 225.0217437744141 L 79.53485870361328 182.2186279296875 L 76.39442443847656 183.7888488769531 C 76.11024475097656 183.9309387207031 75.80414581298828 184.0000457763672 75.50057983398438 184.0000457763672 C 74.98163604736328 184.0000457763672 74.46984100341797 183.7982635498047 74.08578491210938 183.4142150878906 L 68.58578491210938 177.9142150878906 C 67.80474090576172 177.1331634521484 67.80474090576172 175.8668365478516 68.58578491210938 175.0857849121094 L 72.08578491210938 171.5857849121094 C 72.14830017089844 171.5232696533203 72.21487426757813 171.4649810791016 72.28510284423828 171.4112854003906 L 80.18878936767578 165.3672943115234 C 80.40830230712891 164.2095184326172 80.48632049560547 163.394287109375 80.49936676025391 162.8290557861328 L 78.91421508789063 164.4142150878906 C 78.52368927001953 164.8047332763672 78.0118408203125 165 77.5 165 C 76.9881591796875 165 76.47631072998047 164.8047332763672 76.08578491210938 164.4142150878906 L 75.21333312988281 163.5417633056641 L 68.861572265625 159.1443939208984 C 68.34723663330078 158.7882995605469 68.02912139892578 158.2120666503906 68.00189971923828 157.5870819091797 C 67.97466278076172 156.9620819091797 68.24143981933594 156.3603515625 68.72284698486328 155.9608764648438 L 92.22284698486328 136.4608764648438 C 92.58489227294922 136.1604614257813 93.03768920898438 135.9999847412109 93.50002288818359 135.9999847412109 Z"/>
  </g>
</svg>
