<svg xmlns="http://www.w3.org/2000/svg" width="43" height="62" viewBox="0 0 43 62">
  <defs>
    <style>
      .cls-1 {
        fill: none;
        stroke-linecap: round;
        stroke-linejoin: round;
      }

      .cls-2, .cls-3 {
        stroke: none;
      }

      .cls-3 {
        fill: #fff;
      }
    </style>
  </defs>
  <g id="rgba_228_228_228_0.76_" data-name="rgba(228,228,228,0.76)" class="cls-1" transform="translate(-475 -165)">
    <path class="cls-2" d="M488.5,167l2.5.5v7l3.5-2.5q2.8-4.2,9-5L516,177.5v38l-1.5,1.5-10,8H501V186.5l-1.5-.5-8-7-.5,36.5-3.5,3.5-8,6H477V176.5l1.5-.5Z"/>
    <path class="cls-3" d="M 488.5 167 L 478.5 176 L 477 176.5 L 477 225 L 479.5 225 L 487.5 219 L 491 215.5 L 491.5 179 L 499.5 186 L 501 186.5 L 501 225 L 504.5 225 L 514.5 217 L 516 215.5 L 516 177.5 L 503.5 167 C 499.3666687011719 167.5333404541016 496.3666687011719 169.1999969482422 494.5 172 L 491 174.5 L 491 167.5 L 488.5 167 M 488.5 164.9999847412109 C 488.6305236816406 164.9999847412109 488.7618713378906 165.0127716064453 488.8922424316406 165.0388336181641 L 491.3922424316406 165.5388336181641 C 492.3270874023438 165.7258148193359 493 166.5466461181641 493 167.5 L 493 170.6136169433594 L 493.0522766113281 170.5762786865234 C 495.2562255859375 167.4749908447266 498.6829833984375 165.60498046875 503.2440490722656 165.0164337158203 C 503.3294067382813 165.0054321289063 503.4149780273438 164.9999847412109 503.5000305175781 164.9999847412109 C 503.9678955078125 164.9999694824219 504.4240112304688 165.1641998291016 504.786376953125 165.4685974121094 L 517.286376953125 175.9685974121094 C 517.73876953125 176.3486022949219 518 176.9091796875 518 177.5 L 518 215.5 C 518 216.0304260253906 517.789306640625 216.5391387939453 517.4141845703125 216.9142150878906 L 515.9141845703125 218.4142150878906 C 515.862060546875 218.4663848876953 515.8070068359375 218.5156402587891 515.7493896484375 218.5617370605469 L 505.7493896484375 226.5617370605469 C 505.3947448730469 226.8454437255859 504.9541320800781 227 504.5 227 L 501 227 C 499.8954162597656 227 499 226.1045684814453 499 225 L 499 187.9415283203125 L 498.8675537109375 187.8973693847656 C 498.6155700683594 187.8133850097656 498.3828735351563 187.6800537109375 498.1829833984375 187.5051574707031 L 493.4405212402344 183.3554840087891 L 492.9998168945313 215.5273895263672 C 492.99267578125 216.0482940673828 492.7825927734375 216.5458526611328 492.4142150878906 216.9142150878906 L 488.9142150878906 220.4142150878906 C 488.8472900390625 220.4811248779297 488.7756958007813 220.543212890625 488.7000122070313 220.6000061035156 L 480.7000122070313 226.6000061035156 C 480.3538208007813 226.8596343994141 479.9327392578125 227 479.5 227 L 477 227 C 475.8954467773438 227 475 226.1045684814453 475 225 L 475 176.5 C 475 175.6391448974609 475.5508422851563 174.8748626708984 476.3675537109375 174.6026306152344 L 477.4719848632813 174.2344818115234 L 487.1620788574219 165.5134124755859 C 487.5326843261719 165.1798553466797 488.010498046875 164.9999847412109 488.5 164.9999847412109 Z"/>
  </g>
</svg>
