<svg xmlns="http://www.w3.org/2000/svg" width="18" height="91" viewBox="0 0 18 91">
  <defs>
    <style>
      .cls-1 {
        fill: none;
        stroke-linecap: round;
        stroke-linejoin: round;
      }

      .cls-2, .cls-3 {
        stroke: none;
      }

      .cls-3 {
        fill: #fff;
      }
    </style>
  </defs>
  <g id="rgba_228_228_228_0.76_" data-name="rgba(228,228,228,0.76)" class="cls-1" transform="translate(-457 -136)">
    <path class="cls-2" d="M470.5,138l2.5.5v77L461.5,225H459V147.5l2.5-2.5Z"/>
    <path class="cls-3" d="M 470.5 138 L 461.5 145 L 459 147.5 L 459 225 L 461.5 225 L 473 215.5 L 473 138.5 L 470.5 138 M 470.5000305175781 135.9999847412109 C 470.6306762695313 135.9999847412109 470.7619934082031 136.0127868652344 470.8922424316406 136.0388336181641 L 473.3922424316406 136.5388336181641 C 474.3270874023438 136.7258148193359 475 137.546630859375 475 138.5 L 475 215.5 C 475 216.0965576171875 474.7336730957031 216.6619873046875 474.2737731933594 217.0419311523438 L 462.7737731933594 226.5419311523438 C 462.4153137207031 226.8380279541016 461.9649353027344 227 461.5 227 L 459 227 C 457.8954162597656 227 457 226.1045684814453 457 225 L 457 147.5 C 457 146.9695587158203 457.2107238769531 146.4608612060547 457.5857849121094 146.0857849121094 L 460.0857849121094 143.5857849121094 C 460.1444396972656 143.5271453857422 460.2066650390625 143.4722137451172 460.2721252441406 143.4212951660156 L 469.2721252441406 136.4212951660156 C 469.6260681152344 136.14599609375 470.0589599609375 135.9999847412109 470.5000305175781 135.9999847412109 Z"/>
  </g>
</svg>
