<svg xmlns="http://www.w3.org/2000/svg" width="43" height="63" viewBox="0 0 43 63">
  <defs>
    <style>
      .cls-1 {
        fill: none;
        stroke-linecap: round;
        stroke-linejoin: round;
      }

      .cls-2, .cls-3 {
        stroke: none;
      }

      .cls-3 {
        fill: #fff;
      }
    </style>
  </defs>
  <g id="rgba_228_228_228_0.76_" data-name="rgba(228,228,228,0.76)" class="cls-1" transform="translate(-610 -164)">
    <path class="cls-2" d="M637.5,166,651,177.5v27l-5.5,5.5-19,15h-3L612,215.5v-29l4.5-4.5ZM627,179l-1,27,10,7V187Z"/>
    <path class="cls-3" d="M 637.5 166 L 616.5 182 L 612 186.5 L 612 215.5 L 623.5 225 L 626.5 225 L 645.5 210 L 651 204.5 L 651 177.5 L 637.5 166 M 636 213 L 626 206 L 627 179 L 636 187 L 636 213 M 637.4998168945313 164 C 637.9624633789063 164 638.4241333007813 164.1599731445313 638.7969360351563 164.4775085449219 L 652.2969360351563 175.9775085449219 C 652.7429809570313 176.3575134277344 653 176.9140167236328 653 177.5 L 653 204.5 C 653 205.0304260253906 652.789306640625 205.5391387939453 652.4141845703125 205.9142150878906 L 646.9141845703125 211.4142150878906 C 646.8590087890625 211.4694366455078 646.8005981445313 211.5213775634766 646.7393188476563 211.5697631835938 L 627.7393188476563 226.5697631835938 C 627.3862915039063 226.8484344482422 626.94970703125 227 626.5 227 L 623.5 227 C 623.0350952148438 227 622.5846557617188 226.8380279541016 622.2262573242188 226.5419158935547 L 610.7262573242188 217.0419158935547 C 610.2662963867188 216.6619873046875 610 216.0965576171875 610 215.5 L 610 186.5 C 610 185.9695739746094 610.210693359375 185.4608612060547 610.5858154296875 185.0857849121094 L 615.0858154296875 180.5857849121094 C 615.1491088867188 180.5224456787109 615.2166748046875 180.4634246826172 615.2879028320313 180.4091339111328 L 636.2879028320313 164.4091339111328 C 636.646728515625 164.1357574462891 637.0736694335938 164 637.4998168945313 164 Z M 634 187.8981323242188 L 628.8416137695313 183.3129272460938 L 628.0389404296875 204.9859466552734 L 634 209.15869140625 L 634 187.8981323242188 Z"/>
  </g>
</svg>
