<svg xmlns="http://www.w3.org/2000/svg" width="42" height="81" viewBox="0 0 42 81">
  <defs>
    <style>
      .cls-1 {
        fill: none;
        stroke-linecap: round;
        stroke-linejoin: round;
      }

      .cls-2, .cls-3 {
        stroke: none;
      }

      .cls-3 {
        fill: #fff;
      }
    </style>
  </defs>
  <g id="rgba_228_228_228_0.76_" data-name="rgba(228,228,228,0.76)" class="cls-1" transform="translate(-117 -146)">
    <path class="cls-2" d="M130.5,148l2.5.5v25l1.5-.5,8-6h2l12.5,9.5v39l-3.5,3.5-8,6H143V187.5l-3.5-3.5-6-5-.5,36.5-1.5,1.5-10,8H119V157.5l4.5-4.5Z"/>
    <path class="cls-3" d="M 130.5 148 L 123.5 153 L 119 157.5 L 119 225 L 121.5 225 L 131.5 217 L 133 215.5 L 133.5 179 L 139.5 184 L 143 187.5 L 143 225 L 145.5 225 L 153.5 219 L 157 215.5 L 157 176.5 L 144.5 167 L 142.5 167 L 134.5 173 L 133 173.5 L 133 148.5 L 130.5 148 M 130.5000305175781 145.9999847412109 C 130.6307373046875 145.9999847412109 130.7620697021484 146.0128021240234 130.8922424316406 146.0388336181641 L 133.3922424316406 146.5388336181641 C 134.3270874023438 146.7258148193359 135 147.546630859375 135 148.5 L 135 170.125 L 141.3000030517578 165.3999938964844 C 141.6461944580078 165.1403503417969 142.0672607421875 165 142.5 165 L 144.5 165 C 144.9370880126953 165 145.3621673583984 165.1431884765625 145.7101593017578 165.4076690673828 L 158.2101745605469 174.9076690673828 C 158.7077941894531 175.2858734130859 159 175.8749694824219 159 176.5 L 159 215.5 C 159 216.0304412841797 158.7892761230469 216.5391387939453 158.4142150878906 216.9142150878906 L 154.9142150878906 220.4142150878906 C 154.8472900390625 220.4811248779297 154.7756958007813 220.543212890625 154.6999969482422 220.6000061035156 L 146.6999969482422 226.6000061035156 C 146.3538055419922 226.8596496582031 145.9327392578125 227 145.5 227 L 143 227 C 141.8954315185547 227 141 226.1045684814453 141 225 L 141 188.3284301757813 L 138.1499633789063 185.4783935546875 L 135.4423522949219 183.2220458984375 L 134.9998168945313 215.5274047851563 C 134.99267578125 216.0482940673828 134.7825775146484 216.5458526611328 134.4142150878906 216.9142150878906 L 132.9142150878906 218.4142150878906 C 132.8620300292969 218.4663848876953 132.8070068359375 218.5156402587891 132.7493896484375 218.5617370605469 L 122.7493896484375 226.5617370605469 C 122.3947601318359 226.8454284667969 121.9541473388672 227 121.5 227 L 119 227 C 117.8954315185547 227 117 226.1045684814453 117 225 L 117 157.5 C 117 156.9695587158203 117.2107238769531 156.4608612060547 117.5857849121094 156.0857849121094 L 122.0857849121094 151.5857849121094 C 122.1636810302734 151.5078887939453 122.2478790283203 151.4365692138672 122.3375244140625 151.3725280761719 L 129.3375244140625 146.3725280761719 C 129.6793518066406 146.1283569335938 130.0864105224609 145.9999847412109 130.5000305175781 145.9999847412109 Z"/>
  </g>
</svg>
