<svg xmlns="http://www.w3.org/2000/svg" width="54" height="62" viewBox="0 0 54 62">
  <defs>
    <style>
      .cls-1 {
        fill: none;
        stroke-linecap: round;
        stroke-linejoin: round;
      }

      .cls-2, .cls-3 {
        stroke: none;
      }

      .cls-3 {
        fill: #fff;
      }
    </style>
  </defs>
  <g id="rgba_228_228_228_0.76_" data-name="rgba(228,228,228,0.76)" class="cls-1" transform="translate(-310 -165)">
    <path class="cls-2" d="M335.5,167h3l11.5,9.5v28l5.5,5.5,6.5,5.5L350.5,225h-3l-8-7-4-1-9,8h-3L312,215.5v-20l2.5-2.5,9-7H326v19.5l2.5,2.5,7,5,.5-25.5-12-11Z"/>
    <path class="cls-3" d="M 335.5 167 L 324 176.5 L 336 187.5 L 335.5 213 L 328.5 208 L 326 205.5 L 326 186 L 323.5 186 L 314.5 193 L 312 195.5 L 312 215.5 L 323.5 225 L 326.5 225 L 335.5 217 L 339.5 218 L 347.5 225 L 350.5 225 L 362 215.5 L 355.5 210 L 350 204.5 L 350 176.5 L 338.5 167 L 335.5 167 M 335.5 165 L 338.5 165 C 338.9649047851563 165 339.4153137207031 165.1619720458984 339.7737731933594 165.4580841064453 L 351.2737731933594 174.9580841064453 C 351.7337036132813 175.3380126953125 352 175.9034423828125 352 176.5 L 352 203.6715850830078 L 356.8553771972656 208.5269622802734 L 363.2918701171875 213.9732360839844 C 363.744140625 214.3558959960938 364.0034484863281 214.9193878173828 363.9999694824219 215.5118103027344 C 363.9964599609375 216.1042327880859 363.7304992675781 216.6646270751953 363.2737731933594 217.0419158935547 L 351.7737731933594 226.5419158935547 C 351.4153137207031 226.8380279541016 350.9649047851563 227 350.5 227 L 347.5 227 C 347.0155639648438 227 346.5475769042969 226.8241577148438 346.1829833984375 226.5051574707031 L 338.5464477539063 219.8231658935547 L 336.0394287109375 219.1964111328125 L 327.8287353515625 226.4948272705078 C 327.4626159667969 226.8202362060547 326.9898376464844 227 326.5 227 L 323.5 227 C 323.0350952148438 227 322.5846862792969 226.8380279541016 322.2262268066406 226.5419158935547 L 310.7262268066406 217.0419158935547 C 310.2662963867188 216.6619873046875 310 216.0965576171875 310 215.5 L 310 195.5 C 310 194.9695739746094 310.2107238769531 194.4608612060547 310.5857849121094 194.0857849121094 L 313.0857849121094 191.5857849121094 C 313.1444396972656 191.5271453857422 313.2066650390625 191.4722137451172 313.2721252441406 191.4212951660156 L 322.2721252441406 184.4212951660156 C 322.6231689453125 184.1482391357422 323.0552368164063 184 323.5 184 L 326 184 C 327.1045837402344 184 328 184.8954315185547 328 186 L 328 204.6715850830078 L 329.797119140625 206.4687042236328 L 333.5747680664063 209.1670227050781 L 333.982666015625 188.3639221191406 L 322.6485595703125 177.9743041992188 C 322.2220458984375 177.5833587646484 321.9857788085938 177.0268859863281 322.0006713867188 176.4485015869141 C 322.0155639648438 175.8701324462891 322.2801818847656 175.3265533447266 322.7262268066406 174.9580841064453 L 334.2262268066406 165.4580841064453 C 334.5846862792969 165.1619720458984 335.0350952148438 165 335.5 165 Z"/>
  </g>
</svg>
