<svg xmlns="http://www.w3.org/2000/svg" width="42" height="91" viewBox="0 0 42 91">
  <defs>
    <style>
      .cls-1 {
        fill: none;
        stroke-linecap: round;
        stroke-linejoin: round;
      }

      .cls-2, .cls-3 {
        stroke: none;
      }

      .cls-3 {
        fill: #fff;
      }
    </style>
  </defs>
  <g id="rgba_228_228_228_0.76_" data-name="rgba(228,228,228,0.76)" class="cls-1" transform="translate(-549 -136)">
    <path class="cls-2" d="M574.5,138h3l11.5,9.5-1.5,2.5-12,8-10-8-.5,56,5.5,3,10-8h4l4.5,6-23.5,18h-3L551,215.5v-58l3.5-3.5Z"/>
    <path class="cls-3" d="M 574.5 138 L 554.5 154 L 551 157.5 L 551 215.5 L 562.5 225 L 565.5 225 L 589 207 L 584.5 201 L 580.5 201 L 570.5 209 L 565 206 L 565.5 150 L 575.5 158 L 587.5 150 L 589 147.5 L 577.5 138 L 574.5 138 M 574.5 136 L 577.5 136 C 577.9649047851563 136 578.4153442382813 136.1619720458984 578.7737426757813 136.4580688476563 L 590.2737426757813 145.9580688476563 C 591.036376953125 146.5880432128906 591.223876953125 147.6808319091797 590.7149658203125 148.5289916992188 L 589.2149658203125 151.0289916992188 C 589.0626220703125 151.2829132080078 588.8557739257813 151.4998321533203 588.609375 151.6640930175781 L 576.609375 159.6640930175781 C 576.2723999023438 159.8887634277344 575.8858032226563 160.0000152587891 575.500244140625 160.0000152587891 C 575.056640625 160.0000152587891 574.6144409179688 159.8528137207031 574.2506103515625 159.5617370605469 L 567.4631958007813 154.1318054199219 L 567.0106201171875 204.8185424804688 L 570.2896118164063 206.6070709228516 L 579.2506103515625 199.4382629394531 C 579.605224609375 199.1545562744141 580.0458374023438 199 580.5 199 L 584.5 199 C 585.1295166015625 199 585.7222900390625 199.29638671875 586.0999755859375 199.8000030517578 L 590.5999755859375 205.8000030517578 C 591.2579956054688 206.6773223876953 591.0867919921875 207.9208984375 590.2161254882813 208.5877685546875 L 566.7161254882813 226.5877685546875 C 566.3671264648438 226.8551177978516 565.939697265625 227 565.5 227 L 562.5 227 C 562.0350952148438 227 561.5846557617188 226.8380279541016 561.2262573242188 226.5419311523438 L 549.7262573242188 217.0419311523438 C 549.2662963867188 216.6619873046875 549 216.0965576171875 549 215.5 L 549 157.5 C 549 156.9695587158203 549.210693359375 156.4608612060547 549.5858154296875 156.0857849121094 L 553.0858154296875 152.5857849121094 C 553.137939453125 152.5336151123047 553.1929931640625 152.4843597412109 553.2506103515625 152.4382629394531 L 573.2506103515625 136.4382629394531 C 573.605224609375 136.1545562744141 574.0458374023438 136 574.5 136 Z"/>
  </g>
</svg>
