<svg xmlns="http://www.w3.org/2000/svg" width="79" height="91" viewBox="0 0 79 91">
  <defs>
    <style>
      .cls-1 {
        fill: none;
        stroke-linecap: round;
        stroke-linejoin: round;
      }

      .cls-2, .cls-3 {
        stroke: none;
      }

      .cls-3 {
        fill: #fff;
      }
    </style>
  </defs>
  <g id="rgba_228_228_228_0.76_" data-name="rgba(228,228,228,0.76)" class="cls-1" transform="translate(-230 -136)">
    <path class="cls-2" d="M256.5,138l2.5.5v45l3.5-2.5,6.5-4V147.5l3.5-3.5,8-6H283v25.5l1.5.5,8.5-7.5v-9l1.5-1.5,10-8H307v67.5l-4.5,4.5-19,15h-3l-10-8h-2l-8,7-4,1L244,214.5l-.5-6.5q-.5,3.5-5,3l-6.5-5.5,12-10v-47l5.5-5.5ZM293,169l-5,4-5,5v28l8,5,2,2Zm-24,19-5,4q-7,2-5,14l9,6,1,1Z"/>
    <path class="cls-3" d="M 256.5 138 L 249.5 143 L 244 148.5 L 244 195.5 L 232 205.5 L 238.5 211 C 238.875 211.0416717529297 239.2291564941406 211.0625 239.5624694824219 211.0625 C 241.8958129882813 211.0625 243.2083435058594 210.0416564941406 243.5 208 L 244 214.5 L 256.5 225 L 260.5 224 L 268.5 217 L 270.5 217 L 280.5 225 L 283.5 225 L 302.5 210 L 307 205.5 L 307 138 L 304.5 138 L 294.5 146 L 293 147.5 L 293 156.5 L 284.5 164 L 283 163.5 L 283 138 L 280.5 138 L 272.5 144 L 269 147.5 L 269 177 L 262.5 181 L 259 183.5 L 259 138.5 L 256.5 138 M 293 213 L 291 211 L 283 206 L 283 178 L 288 173 L 293 169 L 293 213 M 269 213 L 268 212 L 259 206 C 257.6666564941406 198 259.3333435058594 193.3333282470703 264 192 L 269 188 L 269 213 M 256.5000305175781 135.9999847412109 C 256.6307373046875 135.9999847412109 256.7620849609375 136.0128021240234 256.8922424316406 136.0388336181641 L 259.3922424316406 136.5388336181641 C 260.3270874023438 136.7258148193359 261 137.546630859375 261 138.5 L 261 179.6136322021484 L 261.3375244140625 179.3725433349609 C 261.3747253417969 179.345947265625 261.412841796875 179.3206481933594 261.4518127441406 179.2966918945313 L 267 175.8824157714844 L 267 147.5 C 267 146.9695587158203 267.2107238769531 146.4608612060547 267.5857849121094 146.0857849121094 L 271.0857849121094 142.5857849121094 C 271.1527099609375 142.5188598632813 271.2242736816406 142.456787109375 271.2999877929688 142.3999938964844 L 279.2999877929688 136.3999938964844 C 279.6461791992188 136.1403503417969 280.0672607421875 136 280.5 136 L 283 136 C 284.1045532226563 136 285 136.8954315185547 285 138 L 285 160.8915863037109 L 291 155.5974731445313 L 291 147.5 C 291 146.9695587158203 291.210693359375 146.4608612060547 291.5857849121094 146.0857849121094 L 293.0857849121094 144.5857849121094 C 293.1379699707031 144.5336151123047 293.1929931640625 144.4843597412109 293.2506103515625 144.4382629394531 L 303.2506103515625 136.4382629394531 C 303.605224609375 136.1545562744141 304.0458679199219 136 304.5 136 L 307 136 C 308.1045532226563 136 309 136.8954315185547 309 138 L 309 205.5 C 309 206.0304412841797 308.789306640625 206.5391387939453 308.4142150878906 206.9142150878906 L 303.9142150878906 211.4142150878906 C 303.8590087890625 211.4694366455078 303.8005981445313 211.5213775634766 303.7392883300781 211.5697631835938 L 284.7392883300781 226.5697631835938 C 284.3862915039063 226.8484191894531 283.94970703125 227 283.5 227 L 280.5 227 C 280.0458679199219 227 279.605224609375 226.8454437255859 279.2506103515625 226.5617370605469 L 269.7984313964844 219 L 269.25146484375 219 L 261.8170166015625 225.5051574707031 C 261.5781555175781 225.7141571044922 261.2929992675781 225.8633117675781 260.9850769042969 225.9402923583984 L 256.9850769042969 226.9402923583984 C 256.82470703125 226.9803771972656 256.6618347167969 227.0000305175781 256.5000915527344 227.0000305175781 C 256.0345764160156 227.0000305175781 255.577880859375 226.8373870849609 255.213623046875 226.5314178466797 L 242.713623046875 216.0314178466797 C 242.3021850585938 215.6858062744141 242.0470886230469 215.1891479492188 242.0058898925781 214.6533813476563 L 241.8582153320313 212.7338104248047 C 241.1741943359375 212.9505004882813 240.4059448242188 213.0625 239.5625 213.0625 C 239.1572570800781 213.0625 238.7254943847656 213.0373687744141 238.2791748046875 212.9877777099609 C 237.88427734375 212.9438934326172 237.5114135742188 212.7834167480469 237.2080993652344 212.5267791748047 L 230.7080993652344 207.0267791748047 C 230.2570190429688 206.6450653076172 229.997802734375 206.0834197998047 230 205.4924926757813 C 230.0022277832031 204.9015502929688 230.2656555175781 204.3418579101563 230.7196350097656 203.9635620117188 L 242 194.5632476806641 L 242 148.5 C 242 147.9695587158203 242.2107238769531 147.4608612060547 242.5857849121094 147.0857849121094 L 248.0857849121094 141.5857849121094 C 248.1636962890625 141.5078887939453 248.2478942871094 141.4365692138672 248.3375244140625 141.3725433349609 L 255.3375244140625 136.3725433349609 C 255.6793518066406 136.1283721923828 256.08642578125 135.9999847412109 256.5000305175781 135.9999847412109 Z M 291 208.6414947509766 L 291 173.1612548828125 L 289.3358764648438 174.4925384521484 L 285 178.8284301757813 L 285 204.8914947509766 L 291 208.6414947509766 Z M 267 208.9296264648438 L 267 192.1612548828125 L 265.2493896484375 193.5617370605469 C 265.0423278808594 193.7273864746094 264.8044128417969 193.8502044677734 264.5494384765625 193.9230499267578 C 263.2797546386719 194.2858123779297 259.4895324707031 195.3696441650391 260.8414001464844 204.8239135742188 L 267 208.9296264648438 Z"/>
  </g>
</svg>
