<svg xmlns="http://www.w3.org/2000/svg" width="47.5" height="72" viewBox="0 0 47.5 72">
  <defs>
    <style>
      .cls-1 {
        fill: none;
        stroke-linecap: round;
        stroke-linejoin: round;
      }

      .cls-2, .cls-3 {
        stroke: none;
      }

      .cls-3 {
        fill: #fff;
      }
    </style>
  </defs>
  <g id="rgba_228_228_228_0.76_" data-name="rgba(228,228,228,0.76)" class="cls-1" transform="translate(-735.5 -155)">
    <path class="cls-2" d="M761.5,157l1.5.5V166h17.5l.5,1.5L769.5,177H763v38.5l-3.5,3.5-8,6H749V177.5l-.5-.5h-11l1-2Z"/>
    <path class="cls-3" d="M 761.5 157 L 738.5 175 L 737.5 177 L 748.5 177 L 749 177.5 L 749 225 L 751.5 225 L 759.5 219 L 763 215.5 L 763 177 L 769.5 177 L 781 167.5 L 780.5 166 L 763 166 L 763 157.5 L 761.5 157 M 761.5001831054688 154.9999847412109 C 761.7122802734375 154.9999847412109 761.9257202148438 155.0337219238281 762.1324462890625 155.1026306152344 L 763.6324462890625 155.6026306152344 C 764.4491577148438 155.8748626708984 765 156.6391448974609 765 157.5 L 765 164 L 780.5 164 C 781.36083984375 164 782.1251220703125 164.5508575439453 782.3973388671875 165.3675384521484 L 782.8973388671875 166.8675384521484 C 783.15869140625 167.6515655517578 782.910888671875 168.5155944824219 782.2737426757813 169.0419158935547 L 770.7737426757813 178.5419158935547 C 770.4153442382813 178.8380279541016 769.9649047851563 179 769.5 179 L 765 179 L 765 215.5 C 765 216.0304260253906 764.789306640625 216.5391387939453 764.4141845703125 216.9142150878906 L 760.9141845703125 220.4142150878906 C 760.8472900390625 220.4811401367188 760.7756958007813 220.5432281494141 760.7000122070313 220.6000061035156 L 752.7000122070313 226.6000061035156 C 752.3538208007813 226.8596496582031 751.9327392578125 227 751.5 227 L 749 227 C 747.8954467773438 227 747 226.1045684814453 747 225 L 747 179 L 737.5 179 C 736.8068237304688 179 736.1630859375 178.6410980224609 735.7987060546875 178.0514678955078 C 735.4342651367188 177.4618377685547 735.4011840820313 176.7255401611328 735.7111206054688 176.1055755615234 L 736.7111206054688 174.1055755615234 C 736.8438110351563 173.8402709960938 737.0338134765625 173.6078033447266 737.2673950195313 173.4249877929688 L 760.2673950195313 155.4249877929688 C 760.6240844726563 155.1458435058594 761.0592651367188 154.9999847412109 761.5001831054688 154.9999847412109 Z"/>
  </g>
</svg>
