<svg xmlns="http://www.w3.org/2000/svg" width="75" height="87" viewBox="0 0 75 87">
  <defs>
    <style>
      .cls-1 {
        fill: #fff;
      }
    </style>
  </defs>
  <path id="rgba_228_228_228_0.76_" data-name="rgba(228,228,228,0.76)" class="cls-1" d="M256.5,138l2.5.5v45l3.5-2.5,6.5-4V147.5l3.5-3.5,8-6H283v25.5l1.5.5,8.5-7.5v-9l1.5-1.5,10-8H307v67.5l-4.5,4.5-19,15h-3l-10-8h-2l-8,7-4,1L244,214.5l-.5-6.5q-.5,3.5-5,3l-6.5-5.5,12-10v-47l5.5-5.5ZM293,169l-5,4-5,5v28l8,5,2,2Zm-24,19-5,4q-7,2-5,14l9,6,1,1Z" transform="translate(-232 -138)"/>
</svg>
