<?xml version="1.0" encoding="iso-8859-1"?>
<!-- Generator: Adobe Illustrator 19.0.0, SVG Export Plug-In . SVG Version: 6.00 Build 0)  -->
<svg version="1.1" id="Layer_1" xmlns="http://www.w3.org/2000/svg" xmlns:xlink="http://www.w3.org/1999/xlink" x="0px" y="0px"
	 viewBox="0 0 504.123 504.123" style="enable-background:new 0 0 504.123 504.123;" xml:space="preserve">
<circle style="fill:#ED9200;" cx="252.062" cy="252.062" r="252.062"/>
<path style="fill:#EA6F00;" d="M73.83,73.823c98.43-98.43,258.032-98.43,356.462,0c98.43,98.438,98.446,258.032,0,356.478"/>
<path style="fill:#1D2321;" d="M435.862,358.4h-367.6l-9.539-26.931l183.8-138.484H261.6l183.8,138.484L435.862,358.4z
	 M114.987,326.892h274.156L252.062,222.586L114.987,326.892z"/>
<g>
	<polygon style="fill:#363D3B;" points="445.401,331.469 261.6,192.985 242.523,192.985 214.213,214.315 235.126,235.473 
		252.062,222.586 389.136,326.892 328.247,326.892 359.755,358.4 435.862,358.4 	"/>
	<path style="fill:#363D3B;" d="M252.062,70.892c29.428,0,53.618,24.166,53.618,53.595c0,8.405-6.837,15.51-15.25,15.51
		c-8.68,0-15.51-7.097-15.51-15.51c0-12.611-10.248-22.851-22.859-22.851c-12.855,0-23.135,10.248-23.135,22.851
		c0,14.722,3.946,19.196,14.486,24.434c23.355,11.815,23.891,41.244,23.891,44.67c0,8.397-6.829,15.242-15.25,15.242
		c-8.649,0-15.494-6.837-15.494-15.242c0-3.679-1.599-14.446-6.861-17.077c-22.048-11.043-31.264-26.537-31.264-52.019
		C198.443,95.059,222.366,70.892,252.062,70.892z"/>
	<path style="fill:#363D3B;" d="M374.154,299.811c0,1.906-1.544,3.45-3.45,3.45H149.173c-1.906,0-3.45-1.544-3.45-3.45v-0.985
		c0-1.898,1.544-3.442,3.45-3.442h221.538c1.898,0,3.442,1.544,3.442,3.45V299.811z"/>
</g>
<g>
</g>
<g>
</g>
<g>
</g>
<g>
</g>
<g>
</g>
<g>
</g>
<g>
</g>
<g>
</g>
<g>
</g>
<g>
</g>
<g>
</g>
<g>
</g>
<g>
</g>
<g>
</g>
<g>
</g>
</svg>
